<svg width="64" height="64" viewBox="0 0 64 64" fill="none" xmlns="http://www.w3.org/2000/svg">
  <rect x="1" y="1" width="62" height="62" rx="15" fill="#F0FDFF" stroke="#BAE6FD" stroke-width="2"/>
  <path d="M27.8 16.8C22.3 16.8 18.4 20.7 18.4 26.3C18.4 32.7 21.8 38.3 25.1 42.7C25.8 43.8 27.3 43.8 28 42.7C29.4 40.7 30.4 38.9 31.3 37.2C32.2 38.9 33.3 40.7 34.7 42.7C35.4 43.8 36.9 43.8 37.7 42.7C40.9 38.3 44.3 32.7 44.3 26.3C44.3 20.7 40.4 16.8 34.9 16.8C33.4 16.8 32.1 17.2 31.3 17.8C30.5 17.2 29.3 16.8 27.8 16.8Z" fill="#FFFFFF" stroke="#0F172A" stroke-width="1.9"/>
  <path d="M14 33.5C19.4 40 24.5 43 31.3 43C38.1 43 43.2 40 48.6 33.5" stroke="#0284C7" stroke-width="3.1" stroke-linecap="round"/>
  <path d="M45.5 16.5L46.8 19.2L49.5 20.5L46.8 21.8L45.5 24.5L44.2 21.8L41.5 20.5L44.2 19.2L45.5 16.5Z" fill="#06B6D4"/>
</svg>
